<svg width="20" height="20" viewBox="0 0 20 20" fill="none" xmlns="http://www.w3.org/2000/svg">
<path fill-rule="evenodd" clip-rule="evenodd" d="M3.96282 4.27752L2.95251 3.48784V14.4582C2.95251 16.1151 4.29566 17.4582 5.95251 17.4582H14.0544C15.7112 17.4582 17.0544 16.1151 17.0544 14.4582V3.48784L16.0441 4.27752C15.6511 4.58462 15.1008 4.58898 14.7031 4.28815L12.7088 2.77966L10.6004 4.34065C10.4207 4.4737 10.2111 4.53758 10.0034 4.53702C9.7958 4.53758 9.58619 4.47371 9.40648 4.34065L7.29812 2.77966L5.30381 4.28815C4.90609 4.58898 4.35573 4.58462 3.96282 4.27752ZM12.06 0.771493L10.0034 2.29412L7.9469 0.771493C7.55467 0.481094 7.018 0.483848 6.62877 0.778255L4.64923 2.27558L2.72992 0.775409C2.00777 0.210959 0.952515 0.725494 0.952515 1.64208V14.4582C0.952515 17.2197 3.19109 19.4582 5.95251 19.4582H14.0544C16.8158 19.4582 19.0544 17.2197 19.0544 14.4582V1.64208C19.0544 0.725486 17.9991 0.210963 17.277 0.775409L15.3576 2.27558L13.3781 0.778255C12.9889 0.483848 12.4522 0.481094 12.06 0.771493ZM12.7778 1.57193L12.7756 1.57483L10.0034 2.29412L12.7778 1.57193ZM9.96185 6C10.4353 6 10.8191 6.38379 10.8191 6.85721V6.96892C11.6404 7.23036 12.3231 7.8854 12.488 8.8202C12.5703 9.28642 12.259 9.73104 11.7928 9.81328C11.3265 9.89553 10.8819 9.58425 10.7997 9.11802C10.7504 8.83846 10.4652 8.557 10.0069 8.557C9.57143 8.557 9.23636 8.90298 9.23636 9.30776C9.23636 9.62294 9.49994 10.0057 10.2532 10.2318C11.2931 10.544 12.4917 11.3788 12.4917 12.8263C12.4917 13.9064 11.8271 14.8371 10.8191 15.1653V15.2753C10.8191 15.7487 10.4353 16.1325 9.96185 16.1325C9.48843 16.1325 9.10464 15.7487 9.10464 15.2753V15.1606C8.233 14.8938 7.57952 14.2294 7.43288 13.2673C7.36155 12.7993 7.68313 12.362 8.15115 12.2907C8.61917 12.2194 9.0564 12.541 9.12773 13.009C9.16956 13.2835 9.38112 13.577 10.0068 13.577C10.4837 13.577 10.7773 13.2531 10.7773 12.8263C10.7773 12.4976 10.4943 12.0942 9.76033 11.8739C8.73968 11.5675 7.52194 10.7687 7.52194 9.30776C7.52194 8.256 8.18221 7.36746 9.10464 7.01046V6.85721C9.10464 6.38379 9.48843 6 9.96185 6Z" fill="black"/>
</svg>
