<svg width="23" height="7" viewBox="0 0 23 7" fill="none" xmlns="http://www.w3.org/2000/svg">
<path d="M21.7922 2.20167C20.6306 3.21859 19.6005 3.28226 18.3631 2.37171C17.7941 1.95324 17.2847 1.4549 16.7142 1.03864C16.2729 0.716592 15.8062 0.397126 15.3028 0.198379C14.4312 -0.146483 13.5472 -0.0294435 12.7511 0.454173C12.2104 0.782841 11.718 1.19211 11.2163 1.58224C11.146 1.63635 11.093 1.66616 11.0396 1.66395C10.9863 1.66616 10.9336 1.63635 10.863 1.58224C10.3617 1.19211 9.86888 0.782473 9.32821 0.454173C8.53322 -0.0294435 7.64807 -0.146483 6.77653 0.198379C6.27303 0.397126 5.80635 0.71696 5.36506 1.03864C4.79458 1.4549 4.2852 1.95324 3.71619 2.37171C2.47881 3.28226 1.44864 3.21859 0.287078 2.20167C0.191386 2.11776 0.0956928 2.03421 0 1.95103C0.172983 2.90796 0.545817 3.76625 1.09642 4.54504C1.79903 5.53914 2.72025 6.25095 3.87666 6.64182C6.57962 7.55569 9.99401 6.28223 11.04 3.87814C12.086 6.28223 15.5 7.55569 18.2034 6.64182C19.3598 6.25095 20.281 5.53877 20.9836 4.54504C21.5338 3.76625 21.907 2.90796 22.08 1.95103C21.9836 2.03384 21.8879 2.11776 21.7922 2.20167Z" fill="black"/>
</svg>
