<svg width="22" height="17" viewBox="0 0 22 17" fill="none" xmlns="http://www.w3.org/2000/svg">
<path fill-rule="evenodd" clip-rule="evenodd" d="M13.155 0.0214844C13.1011 0.012492 13.0457 0.0078125 12.9893 0.0078125C12.9328 0.0078125 12.8774 0.012492 12.8235 0.0214844H11.004L10.9918 0.021557L10.9797 0.0214844H4.91895C2.70981 0.0214844 0.918945 1.81235 0.918945 4.02149V6.02928C0.918945 6.61085 1.36071 7.06241 1.89445 7.12596L1.89445 7.12596C2.03726 7.14296 2.3497 7.20215 2.60055 7.35748C2.716 7.42898 2.79644 7.50747 2.84897 7.59216C2.89743 7.6703 2.94742 7.79333 2.94843 8.00214C2.94943 8.20941 2.90058 8.33198 2.85245 8.4105C2.80005 8.49598 2.71881 8.5762 2.60126 8.64987C2.34648 8.80955 2.02862 8.87226 1.88466 8.8907C1.35602 8.95843 0.918945 9.40761 0.918945 9.98611V11.9747C0.918945 14.1838 2.70981 15.9747 4.91895 15.9747H10.9797L10.9918 15.9746L11.004 15.9747H12.6649C12.7666 16.0096 12.8757 16.0285 12.9893 16.0285C13.1028 16.0285 13.212 16.0096 13.3137 15.9747H17.0647C19.2738 15.9747 21.0647 14.1838 21.0647 11.9747V9.98611C21.0647 9.40759 20.6276 8.95843 20.099 8.8907C19.955 8.87226 19.6372 8.80955 19.3824 8.64987C19.2648 8.5762 19.1836 8.49598 19.1312 8.4105C19.0831 8.33198 19.0342 8.20941 19.0352 8.00214C19.0362 7.79333 19.0862 7.6703 19.1347 7.59216C19.1872 7.50747 19.2677 7.42898 19.3831 7.35748C19.6339 7.20215 19.9464 7.14296 20.0892 7.12596L19.971 6.13297L20.0892 7.12596C20.6229 7.06241 21.0647 6.61085 21.0647 6.02928V4.02149C21.0647 1.81235 19.2738 0.0214844 17.0647 0.0214844H13.155ZM11.9893 2.02148V2.78526C11.9893 3.33755 12.437 3.78526 12.9893 3.78526C13.5415 3.78526 13.9893 3.33755 13.9893 2.78526V2.02148H17.0647C18.1693 2.02148 19.0647 2.91692 19.0647 4.02149V5.31708C18.8329 5.3943 18.5786 5.50325 18.3302 5.6571C17.664 6.06961 17.041 6.81528 17.0352 7.99244C17.0295 9.1756 17.6549 9.92756 18.3203 10.3445C18.572 10.5023 18.8301 10.6142 19.0647 10.6935V11.9747C19.0647 13.0793 18.1693 13.9747 17.0647 13.9747H13.9893V13.251C13.9893 12.6988 13.5416 12.251 12.9893 12.251C12.437 12.251 11.9893 12.6988 11.9893 13.251V13.9747H11.004L10.9918 13.9748L10.9797 13.9747H4.91895C3.81438 13.9747 2.91895 13.0793 2.91895 11.9747V10.6935C3.15356 10.6142 3.41167 10.5023 3.66336 10.3445C4.32871 9.92756 4.95414 9.1756 4.94841 7.99244C4.9427 6.81528 4.31964 6.06961 3.65349 5.6571C3.40504 5.50325 3.15071 5.3943 2.91895 5.31708V4.02149C2.91895 2.91692 3.81438 2.02148 4.91895 2.02148H10.9797L10.9918 2.02141L11.004 2.02148H11.9893ZM13.9893 7.0066C13.9893 6.45432 13.5415 6.00661 12.9892 6.00661C12.437 6.00662 11.9893 6.45434 11.9893 7.00662L11.9893 8.98411C11.9893 9.5364 12.437 9.98411 12.9893 9.9841C13.5416 9.9841 13.9893 9.53638 13.9893 8.98409L13.9893 7.0066Z" fill="black"/>
</svg>
