<svg width="20" height="20" viewBox="0 0 20 20" fill="none" xmlns="http://www.w3.org/2000/svg">
<path fill-rule="evenodd" clip-rule="evenodd" d="M18 10C18 14.4183 14.4183 18 10 18C5.58172 18 2 14.4183 2 10C2 5.58172 5.58172 2 10 2C14.4183 2 18 5.58172 18 10ZM20 10C20 15.5228 15.5228 20 10 20C4.47715 20 0 15.5228 0 10C0 4.47715 4.47715 0 10 0C15.5228 0 20 4.47715 20 10ZM9.12991 9.09222L9.97675 8.24592C9.97675 8.24592 9.12991 7 7.38994 7C5.47169 7 4 8.46926 4 10.25C4 12.0307 5.47169 13.5 7.38994 13.5C9.12991 13.5 10.0213 12.2541 10.0213 12.2541L9.21819 11.4069C9.21819 11.4069 8.5942 12.2977 7.38994 12.2977C6.23025 12.2977 5.33798 11.4069 5.33798 10.25C5.33798 9.09222 6.23025 8.20142 7.38994 8.20142C8.54877 8.20142 9.12991 9.09222 9.12991 9.09222ZM13.7659 7.13306H11V13.3669H12.338V11.1849H13.4977L14.7019 13.3669H16.129L14.7911 11.006C14.7911 11.006 15.9062 10.5174 15.9062 9.18163C15.9062 8.04182 15.0139 7.13306 13.7659 7.13306ZM12.338 8.33533H13.7205C14.2117 8.33533 14.5682 8.69131 14.5682 9.18163C14.5682 9.62661 14.2117 9.98258 13.7205 9.98258H12.338V8.33533Z" fill="black"/>
</svg>
