<svg width="20" height="22" viewBox="0 0 20 22" fill="none" xmlns="http://www.w3.org/2000/svg">
<path d="M17.2 5.538H16.83C17.22 4.96936 17.43 4.25107 17.43 3.40309C17.28 1.7171 16.02 0.5 14.43 0.5C12.26 0.5 11.17 2.12613 10 3.9019C8.85 2.15606 7.76 0.5 5.57 0.5C3.99 0.5 2.72 1.7171 2.57 3.49287C2.57 4.29097 2.78 4.97933 3.17 5.538H2.8C1.26 5.538 0 6.79501 0 8.33135V9.72803C0 10.985 0.85 12.0425 2 12.3917V18.1081C2 19.9736 3.53 21.5 5.4 21.5H14.6C16.48 21.5 18 19.9736 18 18.1081V12.3917C19.15 12.0425 20 10.985 20 9.72803V8.33135C20 6.79501 18.74 5.538 17.2 5.538ZM11.67 4.98931C12.75 3.34323 13.37 2.48527 14.43 2.48527C15.1 2.48527 15.39 3.07387 15.43 3.4829C15.43 4.18124 15.23 4.70998 14.36 4.95938L11.31 5.51805L11.67 4.98931ZM5.57 2.48527C6.63 2.48527 7.24 3.34323 8.37 5.04917L8.69 5.52803L5.73 4.97933C4.77 4.70998 4.57 4.18124 4.57 3.57268C4.61 3.07387 4.91 2.48527 5.58 2.48527H5.57ZM16 18.1081C16 18.8762 15.37 19.5048 14.6 19.5048H5.4C4.63 19.5048 4 18.8762 4 18.1081V12.5214H16V18.1081ZM18 9.72803C18 10.167 17.64 10.5261 17.2 10.5261H2.8C2.36 10.5261 2 10.167 2 9.72803V8.33135C2 7.8924 2.36 7.53325 2.8 7.53325H17.2C17.64 7.53325 18 7.8924 18 8.33135V9.72803Z" fill="black"/>
</svg>
