<svg xmlns="http://www.w3.org/2000/svg" width="20" height="20" viewBox="0 0 20 20" fill="none">
<path fill-rule="evenodd" clip-rule="evenodd" d="M10 0C4.47006 0 0 4.48037 0 10C0 15.5196 4.47006 20 10 20C15.5203 20 20 15.5203 20 10C20 4.47972 15.5203 0 10 0ZM6.46391 2.82102C5.04201 3.52232 3.85944 4.63351 3.06948 6H4.89109C5.21575 4.95663 5.66255 4.00377 6.21086 3.1813C6.29262 3.05868 6.37699 2.9385 6.46391 2.82102ZM4.4382 8H2.25184C2.08742 8.6393 2 9.30947 2 10C2 10.6905 2.08742 11.3607 2.25184 12H4.41011C4.32824 11.3834 4.28565 10.7481 4.28565 10.1001C4.28565 9.38216 4.33796 8.67931 4.4382 8ZM6.43062 12C6.33615 11.3928 6.28565 10.7568 6.28565 10.1001C6.28565 9.37018 6.34799 8.66656 6.46349 8L13.5221 8C13.6377 8.66657 13.7 9.37018 13.7 10.1001C13.7 10.7568 13.6495 11.3928 13.555 12L6.43062 12ZM4.83062 14H3.06948C3.81801 15.2948 4.91905 16.3604 6.24218 17.0653C6.06793 16.8074 5.90472 16.5379 5.75308 16.2587C5.37913 15.5703 5.06841 14.8115 4.83062 14ZM9.99284 17.8203C9.07126 17.413 8.19223 16.559 7.51053 15.3041C7.29253 14.9028 7.09825 14.4662 6.93218 14L13.0535 14C12.8884 14.4634 12.6955 14.8974 12.4791 15.2967C11.797 16.5555 10.9162 17.4122 9.99284 17.8203ZM7.00594 6C7.24707 5.36646 7.54084 4.79189 7.87497 4.2907C8.49722 3.35732 9.22682 2.7178 9.99282 2.38063C10.7588 2.7178 11.4884 3.35732 12.1107 4.2907C12.4448 4.79189 12.7386 5.36646 12.9797 6L7.00594 6ZM13.7748 3.1813C13.6911 3.05585 13.6048 2.93298 13.5157 2.81292C14.9446 3.51377 16.1344 4.62829 16.9285 6H15.0945C14.7699 4.95664 14.3231 4.00377 13.7748 3.1813ZM15.7 10.1001C15.7 10.7481 15.6574 11.3835 15.5755 12H17.7476C17.9124 11.3607 18 10.6905 18 10C18 9.30949 17.9124 8.63932 17.7476 8H15.5474C15.6477 8.67931 15.7 9.38216 15.7 10.1001ZM14.2375 16.2496C14.0828 16.5352 13.916 16.8106 13.7376 17.0739C15.0678 16.3691 16.1759 15.3001 16.9285 14H15.155C14.9183 14.8079 14.6093 15.5636 14.2375 16.2496Z" fill="black"/>
</svg>