<svg width="20" height="20" viewBox="0 0 20 20" fill="none" xmlns="http://www.w3.org/2000/svg">
<path d="M17.25 7.11V6.54C17.25 4.80548 16.561 3.14201 15.3345 1.91552C14.108 0.689034 12.4445 0 10.71 0H9.29C7.55548 0 5.89201 0.689034 4.66552 1.91552C3.43903 3.14201 2.75 4.80548 2.75 6.54V7.11C1.95315 7.37213 1.25888 7.87815 0.765377 8.55649C0.271877 9.23483 0.00412865 10.0512 0 10.89L0 11C0 12.0609 0.421427 13.0783 1.17157 13.8284C1.92172 14.5786 2.93913 15 4 15C4.33152 15 4.64946 14.8683 4.88388 14.6339C5.1183 14.3995 5.25 14.0815 5.25 13.75V6.54C5.25 5.47913 5.67143 4.46172 6.42157 3.71157C7.17172 2.96143 8.18913 2.54 9.25 2.54H10.67C11.7309 2.54 12.7483 2.96143 13.4984 3.71157C14.2486 4.46172 14.67 5.47913 14.67 6.54V16.35C14.6684 16.6409 14.5575 16.9207 14.3593 17.1337C14.1611 17.3467 13.8901 17.4774 13.6 17.5H10.78C10.4485 17.5 10.1305 17.6317 9.89612 17.8661C9.6617 18.1005 9.53 18.4185 9.53 18.75C9.53 19.0815 9.6617 19.3995 9.89612 19.6339C10.1305 19.8683 10.4485 20 10.78 20H13.6C14.5672 19.9974 15.4941 19.612 16.178 18.928C16.862 18.2441 17.2474 17.3172 17.25 16.35V14.75C18.042 14.4895 18.7329 13.988 19.2259 13.3157C19.719 12.6433 19.9896 11.8337 20 11V10.92C20.0022 10.076 19.7373 9.25298 19.2434 8.56865C18.7495 7.88431 18.0517 7.37374 17.25 7.11Z" fill="black"/>
</svg>
