<svg width="18" height="22" viewBox="0 0 18 22" fill="none" xmlns="http://www.w3.org/2000/svg">
<path fill-rule="evenodd" clip-rule="evenodd" d="M2.32001 9.46048V9.45378C2.33342 5.76623 5.3332 2.78732 9.02096 2.79984C12.7093 2.81238 15.6891 5.8125 15.6765 9.5008L15.6765 9.5042V9.58137C15.6278 11.9786 14.2768 14.2939 12.4752 16.1961C11.4502 17.26 10.3058 18.2019 9.06459 19.0032C9.04185 19.0179 9.01973 19.0335 8.99827 19.0499C8.97779 19.0342 8.95672 19.0193 8.93508 19.0052C7.08491 17.801 5.46112 16.2805 4.13789 14.5135L4.1315 14.5051C3.01925 13.0519 2.38629 11.289 2.32001 9.46048ZM9.02775 0.799856C4.23489 0.783572 0.336297 4.65576 0.320013 9.44863L0.320007 9.47811C0.320007 9.48956 0.320204 9.50101 0.320597 9.51245C0.397842 11.7609 1.17362 13.9293 2.54004 15.7164C3.99198 17.6544 5.77081 19.324 7.79644 20.6503C8.49863 21.2095 9.49569 21.21 10.1984 20.6517C11.5513 19.773 12.7995 18.7426 13.9186 17.5805L13.9241 17.5746C15.8927 15.4972 17.6175 12.7214 17.6763 9.61008L17.6765 9.59116V9.50586C17.6919 4.71379 13.82 0.816138 9.02775 0.799856ZM7.53741 9.59954C7.53741 8.79273 8.19147 8.13867 8.99828 8.13867C9.8051 8.13867 10.4592 8.79273 10.4592 9.59954C10.4592 10.4064 9.8051 11.0604 8.99828 11.0604C8.19147 11.0604 7.53741 10.4064 7.53741 9.59954ZM8.99828 6.13867C7.0869 6.13867 5.53741 7.68816 5.53741 9.59954C5.53741 11.5109 7.0869 13.0604 8.99828 13.0604C10.9097 13.0604 12.4592 11.5109 12.4592 9.59954C12.4592 7.68816 10.9097 6.13867 8.99828 6.13867Z" fill="black"/>
</svg>
