<svg width="22" height="22" viewBox="0 0 22 22" fill="none" xmlns="http://www.w3.org/2000/svg">
<path fill-rule="evenodd" clip-rule="evenodd" d="M2.97559 10.9998C2.97559 6.56814 6.56814 2.97559 10.9998 2.97559C15.4314 2.97559 19.024 6.56814 19.024 10.9998C19.024 15.4314 15.4314 19.024 10.9998 19.024C6.56814 19.024 2.97559 15.4314 2.97559 10.9998ZM10.9998 0.975586C5.46357 0.975586 0.975586 5.46357 0.975586 10.9998C0.975586 16.536 5.46357 21.024 10.9998 21.024C16.536 21.024 21.024 16.536 21.024 10.9998C21.024 5.46357 16.536 0.975586 10.9998 0.975586ZM14.3587 12.5774C14.3233 12.3525 14.3947 12.1233 14.5501 11.9648L16.7938 9.72912C16.9786 9.54661 17.0464 9.26873 16.9678 9.01549C16.8844 8.76287 16.6738 8.57973 16.4218 8.54184L13.4402 8.0865C13.2249 8.05176 13.0383 7.9084 12.9423 7.70189L11.6111 4.87892C11.5073 4.66673 11.3087 4.52463 11.0831 4.5H10.8306L10.7286 4.54421L10.6632 4.56947C10.6272 4.59157 10.5948 4.61873 10.5666 4.65157L10.5126 4.69578C10.464 4.74504 10.4238 4.80314 10.3926 4.86629L9.07879 7.70189C8.97681 7.91661 8.77763 8.06187 8.55086 8.0865L5.56925 8.54184C5.32148 8.58289 5.11631 8.7654 5.03592 9.01549C4.95313 9.26621 5.01612 9.54408 5.1973 9.72912L7.36362 11.9395C7.519 12.1005 7.59039 12.3311 7.55499 12.5578L7.02106 15.6649C6.96287 16.0407 7.19984 16.3969 7.55499 16.4676C7.70077 16.4923 7.84955 16.4676 7.98094 16.3982L10.6386 14.9324C10.689 14.9033 10.7442 14.8844 10.8006 14.8755H10.9631C11.0681 14.8787 11.1707 14.9065 11.2631 14.9582L13.9202 16.4171C14.1439 16.5434 14.4169 16.5245 14.6221 16.3666C14.8314 16.2144 14.937 15.9479 14.892 15.6845L14.3587 12.5774Z" fill="black"/>
</svg>
