<svg width="22" height="18" viewBox="0 0 22 18" fill="none" xmlns="http://www.w3.org/2000/svg">
<path fill-rule="evenodd" clip-rule="evenodd" d="M17.9328 1.94011C18.209 1.46182 18.0451 0.850225 17.5668 0.574083C17.0885 0.297941 16.4769 0.461816 16.2008 0.940108L14.7008 3.53818C14.4246 4.01648 14.5885 4.62807 15.0668 4.90421C15.5451 5.18035 16.1567 5.01648 16.4328 4.53818L17.9328 1.94011ZM11.1403 4.49104C10.927 3.69508 9.89653 3.48421 9.38773 4.13241L6.30048 8.06547C6.10614 8.31306 6.0397 8.6377 6.12117 8.94173L6.89762 11.8395C6.97909 12.1435 7.19894 12.3915 7.49105 12.5087L12.1312 14.3712C12.896 14.6782 13.6829 13.9803 13.4696 13.1844L11.1403 4.49104ZM7.81451 2.89751C9.34093 0.952904 12.4323 1.5855 13.0721 3.9734L15.4015 12.6667C16.0413 15.0546 13.6804 17.1482 11.3862 16.2273L7.67394 14.7372L8.09131 16.2949C8.26797 16.9542 7.7468 17.5928 7.06547 17.5519L6.01327 17.4888C5.58361 17.463 5.21866 17.1652 5.10726 16.7494L4.51739 14.548L3.50455 14.8194C2.43762 15.1053 1.34095 14.4721 1.05506 13.4052L0.278606 10.5074C-0.00727797 9.44047 0.625887 8.34379 1.69282 8.05791L4.40944 7.32999C4.49785 7.15503 4.60397 6.98763 4.72726 6.83057L7.81451 2.89751ZM2.21046 9.98976L4.18924 9.45955L4.96569 12.3573L2.98691 12.8875L2.21046 9.98976ZM20.8611 12.8687C20.5849 13.347 19.9733 13.5109 19.495 13.2347L16.897 11.7347C16.4187 11.4586 16.2548 10.847 16.5309 10.3687C16.8071 9.89041 17.4187 9.72653 17.897 10.0027L20.495 11.5027C20.9733 11.7788 21.1372 12.3904 20.8611 12.8687ZM21.0524 7.26405C21.5858 7.12111 21.9024 6.57278 21.7595 6.03931C21.6165 5.50584 21.0682 5.18926 20.5347 5.3322L17.6369 6.10866C17.1035 6.2516 16.7869 6.79994 16.9298 7.3334C17.0728 7.86687 17.6211 8.18345 18.1546 8.04051L21.0524 7.26405Z" fill="black"/>
</svg>
