<svg width="20" height="22" viewBox="0 0 20 22" fill="none" xmlns="http://www.w3.org/2000/svg">
<path fill-rule="evenodd" clip-rule="evenodd" d="M4.29571 8.43598C4.29571 7.7632 4.29635 7.13203 4.34985 6.5173C4.59212 3.9533 7.20353 2 9.96106 2H10.0387C12.7946 2 15.4084 3.95228 15.6597 6.51868C15.6839 6.79893 15.6846 7.08999 15.6834 7.42789L15.6832 7.48158C15.682 7.79438 15.6806 8.15041 15.7067 8.50857C15.7099 8.55322 15.7161 8.59759 15.7253 8.6414C15.9382 9.65553 16.4141 10.5961 17.1042 11.3727C17.3404 11.7407 17.4758 12.1607 17.4989 12.5926V12.7776L17.499 12.7898L17.4992 12.8025C17.5145 13.4165 17.3068 14.018 16.9098 14.4995C16.3328 15.0936 15.5526 15.466 14.7118 15.5425L14.6957 15.5441C11.5712 15.8793 8.41879 15.8793 5.29428 15.5441L5.29429 15.5441L5.28223 15.5429C4.44192 15.4631 3.6622 15.0916 3.08185 14.5008C2.69189 14.0181 2.48747 13.4196 2.5006 12.8086L2.50083 12.7871V12.5949C2.52629 12.1592 2.66206 11.7355 2.89695 11.3621C3.5887 10.5901 4.06467 9.65168 4.27484 8.63923C4.28872 8.57237 4.29571 8.50426 4.29571 8.43598ZM9.96106 0C6.45212 0 2.71934 2.48199 2.35829 6.3337L2.35827 6.3337L2.35772 6.34001C2.29851 7.01796 2.29583 7.6982 2.29572 8.32723C2.14417 8.9745 1.82554 9.57531 1.36765 10.0712C1.33195 10.1099 1.29937 10.1513 1.27019 10.1951C0.808937 10.8873 0.543172 11.6894 0.502053 12.5186C0.501235 12.5351 0.500826 12.5516 0.500826 12.5681V12.777C0.479862 13.8812 0.858593 14.9544 1.56584 15.8062C1.58136 15.8249 1.59756 15.843 1.6144 15.8605C2.5311 16.8138 3.76498 17.4062 5.0867 17.5333C8.34855 17.8828 11.6394 17.8829 14.9013 17.5336C16.2263 17.411 17.4636 16.8167 18.3784 15.8576C18.3924 15.8429 18.406 15.8278 18.419 15.8124C19.1386 14.9598 19.5233 13.8784 19.4989 12.7659V12.5681C19.4989 12.5531 19.4986 12.5381 19.4979 12.5231C19.4604 11.6921 19.1927 10.8883 18.7253 10.1983C18.6983 10.1584 18.6683 10.1204 18.6358 10.0848C18.1703 9.57508 17.8478 8.95859 17.6968 8.29524C17.6812 8.03693 17.6822 7.77015 17.6833 7.46359L17.6834 7.43512C17.6846 7.10364 17.6853 6.72481 17.6517 6.34001L17.6518 6.34001L17.6509 6.33072C17.2785 2.48219 13.5486 0 10.0387 0H9.96106ZM8.33685 19.2285C7.99271 18.7965 7.36356 18.7253 6.9316 19.0695C6.49965 19.4136 6.42846 20.0428 6.7726 20.4747C7.43827 21.3102 8.41181 21.8466 9.47515 21.9717C10.5352 22.0964 11.6045 21.8032 12.4483 21.1523C12.7082 20.9576 12.9427 20.7313 13.1461 20.4784C13.4923 20.0481 13.4241 19.4186 12.9938 19.0724C12.5635 18.7263 11.934 18.7945 11.5878 19.2248C11.4887 19.348 11.3737 19.4588 11.2454 19.5545L11.2304 19.5659C10.8031 19.8971 10.2554 20.0497 9.70888 19.9854C9.16256 19.9211 8.66973 19.6463 8.33685 19.2285Z" fill="black"/>
</svg>
