<svg width="22" height="18" viewBox="0 0 22 18" fill="none" xmlns="http://www.w3.org/2000/svg">
<path fill-rule="evenodd" clip-rule="evenodd" d="M0 6.5V5.75107C0 2.44505 3.04242 0 6.48381 0H15.5162C18.9576 0 22 2.44505 22 5.75107V6.49803C22 6.49868 22 6.49934 22 6.5C22 6.50066 22 6.50132 22 6.50197V12.2489C22 15.5549 18.9576 18 15.5162 18H6.48381C3.04242 18 0 15.5549 0 12.2489V6.5ZM20 7.5V12.2489C20 14.1907 18.1319 16 15.5162 16H6.48381C3.86806 16 2 14.1907 2 12.2489V7.5H20ZM19.9896 5.5C19.837 3.65617 18.0188 2 15.5162 2H6.48381C3.98119 2 2.16299 3.65617 2.01039 5.5H19.9896ZM4 12.5C4 11.9477 4.44772 11.5 5 11.5H7C7.55228 11.5 8 11.9477 8 12.5C8 13.0523 7.55228 13.5 7 13.5H5C4.44772 13.5 4 13.0523 4 12.5Z" fill="black"/>
</svg>
