<svg width="24" height="15" viewBox="0 0 24 15" fill="none" xmlns="http://www.w3.org/2000/svg">
<path fill-rule="evenodd" clip-rule="evenodd" d="M10.1351 1.92192C10.1351 0.860659 10.9958 0 12.057 0C13.1183 0 13.9789 0.860659 13.9789 1.92192C13.9789 2.41802 13.7913 2.8656 13.4861 3.20334C13.7722 3.99548 14.3188 5.18824 15.2166 6.04146C15.8007 6.59649 16.5085 6.98455 17.3903 7.05405C18.161 7.11478 19.1546 6.93917 20.4147 6.2824C20.4547 5.32848 21.2416 4.56638 22.2053 4.56638C24.0623 4.56638 24.5453 6.87358 23.2878 7.79587C22.997 8.98563 22.3248 11.7298 22.1552 12.3067L22.155 12.3072C22.1464 12.3366 22.1372 12.3683 22.1275 12.4019C22.0376 12.7123 21.8998 13.1886 21.6661 13.5801C21.3661 14.0825 20.831 14.5755 19.9798 14.5755H4.00943C3.15793 14.5755 2.62258 14.0829 2.32248 13.5797C2.08935 13.1889 1.95177 12.7132 1.86212 12.4033C1.85225 12.3691 1.84296 12.337 1.83418 12.3072L1.83388 12.3062C1.66352 11.7257 0.984662 8.954 0.696896 7.77455C0.275105 7.44945 0 6.93991 0 6.35985C0 5.37062 0.803031 4.56758 1.79227 4.56758C2.75653 4.56758 3.54538 5.33001 3.58313 6.28797C4.85665 6.95003 5.85752 7.12022 6.63131 7.05189C7.51689 6.97368 8.22732 6.57239 8.81261 6.00257C9.72726 5.11208 10.2692 3.87452 10.5391 3.10008C10.2866 2.77571 10.1351 2.36756 10.1351 1.92192ZM11.9943 4.82943C11.6049 5.66718 11.0284 6.63668 10.2078 7.43559C9.36771 8.25344 8.24609 8.91707 6.80725 9.04414C5.62107 9.14889 4.30483 8.88143 2.8498 8.15856C3.17386 9.48033 3.6277 11.316 3.75286 11.7427C3.76326 11.778 3.7732 11.812 3.78282 11.8449C3.82614 11.9929 3.86294 12.1187 3.90547 12.2422C3.95654 12.3905 4.00107 12.4897 4.04013 12.5552C4.04472 12.5629 4.04896 12.5697 4.05281 12.5755H19.9359C19.9398 12.5696 19.9441 12.5627 19.9488 12.5549C19.988 12.4893 20.0326 12.3899 20.0837 12.2417C20.1266 12.1175 20.1637 11.9908 20.2073 11.8416C20.2167 11.8097 20.2263 11.7767 20.2364 11.7425C20.3617 11.3165 20.8158 9.47942 21.1402 8.15706C19.706 8.86989 18.4066 9.14033 17.2332 9.04787C15.804 8.93524 14.6833 8.29372 13.8389 7.49123C12.9868 6.6815 12.3924 5.68613 11.9943 4.82943Z" fill="black"/>
</svg>
