<svg width="20" height="20" viewBox="0 0 20 20" fill="none" xmlns="http://www.w3.org/2000/svg">
<path fill-rule="evenodd" clip-rule="evenodd" d="M10 0C4.47006 0 0 4.48037 0 10C0 15.5196 4.47006 20 10 20C15.5203 20 20 15.5203 20 10C20 4.47972 15.5203 0 10 0ZM2 10C2 5.58363 5.57594 2 10 2C14.4157 2 18 5.58428 18 10C18 14.4157 14.4157 18 10 18C5.57594 18 2 14.4164 2 10ZM10.005 7.45435C10.6954 7.45435 11.255 6.8947 11.255 6.20435C11.255 5.51399 10.6954 4.95435 10.005 4.95435H9.995C9.30464 4.95435 8.745 5.51399 8.745 6.20435C8.745 6.8947 9.30464 7.45435 9.995 7.45435H10.005ZM10.005 15.0461C9.31465 15.0461 8.755 14.4865 8.755 13.7961L8.75501 9.37714C8.75501 8.68679 9.31465 8.12714 10.005 8.12714C10.6954 8.12714 11.255 8.68679 11.255 9.37714L11.255 13.7961C11.255 14.4865 10.6954 15.0461 10.005 15.0461Z" fill="black"/>
</svg>
